<svg xmlns="http://www.w3.org/2000/svg" xmlns:xlink="http://www.w3.org/1999/xlink" preserveAspectRatio="xMidYMid" width="98" height="98" viewBox="0 0 98 98">
  <defs>
    <style>

      .cls-3 {
        fill: #2ecc71;
      }

      .cls-4 {
        fill: #ffffff;
      }
    </style>
  </defs>
  <g id="linksvg">
    <circle id="circle-1" class="cls-3" cx="49" cy="49" r="49"/>
    <path d="M63.546,39.358 C63.546,39.358 57.527,49.830 57.527,49.830 C56.577,51.483 54.473,52.049 52.828,51.095 C52.828,51.095 51.338,50.231 51.338,50.231 C51.338,50.231 53.058,47.239 53.058,47.239 C53.058,47.239 53.058,47.239 53.058,47.239 C53.881,47.716 54.933,47.433 55.408,46.607 C55.408,46.607 59.707,39.126 59.707,39.126 C60.182,38.300 59.900,37.244 59.078,36.767 C59.078,36.767 53.120,33.312 53.120,33.312 C52.297,32.835 51.246,33.118 50.771,33.944 C50.771,33.944 46.471,41.424 46.471,41.424 C45.996,42.250 46.278,43.307 47.100,43.784 C47.100,43.784 45.381,46.776 45.381,46.776 C45.381,46.776 43.891,45.912 43.891,45.912 C42.246,44.958 41.682,42.845 42.632,41.193 C42.632,41.193 48.652,30.720 48.652,30.720 C49.602,29.068 51.705,28.502 53.351,29.456 C53.351,29.456 62.287,34.638 62.287,34.638 C63.932,35.592 64.496,37.705 63.546,39.358 ZM43.200,57.480 C42.377,57.003 42.096,55.946 42.571,55.120 C42.571,55.120 49.450,43.152 49.450,43.152 C49.925,42.325 50.977,42.042 51.799,42.519 C52.622,42.996 52.904,44.053 52.429,44.879 C52.429,44.879 45.549,56.848 45.549,56.848 C45.074,57.674 44.023,57.957 43.200,57.480 ZM41.941,52.760 C41.941,52.760 41.941,52.760 41.941,52.760 C41.118,52.283 40.067,52.567 39.592,53.393 C39.592,53.393 35.292,60.873 35.292,60.873 C34.817,61.699 35.099,62.756 35.921,63.233 C35.921,63.233 41.879,66.688 41.879,66.688 C42.702,67.165 43.754,66.882 44.229,66.056 C44.229,66.056 48.528,58.575 48.528,58.575 C49.003,57.749 48.721,56.692 47.899,56.215 C47.899,56.215 47.899,56.215 47.899,56.215 C47.899,56.215 49.619,53.223 49.619,53.223 C49.619,53.223 51.108,54.087 51.108,54.087 C52.753,55.041 53.317,57.154 52.367,58.807 C52.367,58.807 46.348,69.279 46.348,69.279 C45.398,70.932 43.294,71.498 41.649,70.544 C41.649,70.544 32.712,65.361 32.712,65.361 C31.067,64.407 30.503,62.294 31.453,60.642 C31.453,60.642 37.473,50.169 37.473,50.169 C38.422,48.517 40.526,47.950 42.171,48.905 C42.171,48.905 43.661,49.768 43.661,49.768 C43.661,49.768 41.941,52.760 41.941,52.760 Z" id="path-1" class="cls-4" fill-rule="evenodd"/>
  </g>
</svg>
